<svg width="141" height="35" viewBox="0 0 141 35" fill="none" xmlns="http://www.w3.org/2000/svg">
<g clip-path="url(#clip0_325_425)">
<path d="M43.207 23.4756H53.0499V20.5109H46.7054V9.34387H43.207V23.4756Z" fill="#340E0E"/>
<path d="M58.884 21.4992C57.4808 21.4992 56.7495 20.2738 56.7495 18.4357C56.7495 16.5976 57.4808 15.3524 58.884 15.3524C60.2873 15.3524 61.0384 16.5976 61.0384 18.4357C61.0384 20.2738 60.2873 21.4992 58.884 21.4992ZM58.9038 23.7919C62.165 23.7919 64.2996 21.4795 64.2996 18.4357C64.2996 15.3919 62.165 13.0795 58.9038 13.0795C55.6624 13.0795 53.4883 15.3919 53.4883 18.4357C53.4883 21.4795 55.6624 23.7919 58.9038 23.7919Z" fill="#340E0E"/>
<path d="M69.9437 26.974C71.4459 26.974 72.7701 26.638 73.6595 25.8475C74.4699 25.1162 75.0035 24.0093 75.0035 22.4875V13.3562H71.9202V14.4432H71.8807C71.2877 13.5933 70.3786 13.0597 69.0346 13.0597C66.5245 13.0597 64.7852 15.1548 64.7852 18.1195C64.7852 21.2225 66.9 22.9223 69.1729 22.9223C70.3983 22.9223 71.1692 22.4282 71.7621 21.7562H71.8412V22.7642C71.8412 23.9896 71.268 24.7011 69.9042 24.7011C68.8369 24.7011 68.3033 24.2465 68.1254 23.7129H65.0026C65.3188 25.8277 67.1569 26.974 69.9437 26.974ZM69.924 20.5308C68.7183 20.5308 67.9277 19.5425 67.9277 18.0206C67.9277 16.479 68.7183 15.4908 69.924 15.4908C71.268 15.4908 71.9795 16.6371 71.9795 18.0009C71.9795 19.4239 71.3273 20.5308 69.924 20.5308Z" fill="#340E0E"/>
<path d="M81.3411 21.4992C79.9378 21.4992 79.2065 20.2738 79.2065 18.4357C79.2065 16.5976 79.9378 15.3524 81.3411 15.3524C82.7444 15.3524 83.4954 16.5976 83.4954 18.4357C83.4954 20.2738 82.7444 21.4992 81.3411 21.4992ZM81.3608 23.7919C84.622 23.7919 86.7566 21.4795 86.7566 18.4357C86.7566 15.3919 84.622 13.0795 81.3608 13.0795C78.1194 13.0795 75.9453 15.3919 75.9453 18.4357C75.9453 21.4795 78.1194 23.7919 81.3608 23.7919Z" fill="#340E0E"/>
<path d="M87.6992 23.4756H90.9209V13.3561H87.6992V23.4756ZM87.6992 11.9528H90.9209V9.34387H87.6992V11.9528Z" fill="#340E0E"/>
<path d="M92.3203 26.8159H95.542V22.4282H95.5815C96.214 23.278 97.1429 23.7919 98.4474 23.7919C101.096 23.7919 102.855 21.6969 102.855 18.4159C102.855 15.3722 101.214 13.0597 98.5264 13.0597C97.1429 13.0597 96.1547 13.6724 95.4629 14.5816H95.4036V13.3562H92.3203V26.8159ZM97.6173 21.3016C96.2337 21.3016 95.4431 20.175 95.4431 18.5345C95.4431 16.894 96.1547 15.6489 97.558 15.6489C98.9415 15.6489 99.5937 16.7952 99.5937 18.5345C99.5937 20.254 98.8427 21.3016 97.6173 21.3016Z" fill="#340E0E"/>
<path d="M108.097 23.7919C110.746 23.7919 112.702 22.6456 112.702 20.4319C112.702 17.8428 110.607 17.3882 108.828 17.0917C107.544 16.8545 106.397 16.7557 106.397 16.0442C106.397 15.4117 107.01 15.1152 107.801 15.1152C108.69 15.1152 109.303 15.3919 109.421 16.3011H112.386C112.228 14.3049 110.686 13.0597 107.82 13.0597C105.429 13.0597 103.452 14.1665 103.452 16.3011C103.452 18.6729 105.33 19.1472 107.089 19.4437C108.433 19.6809 109.659 19.7797 109.659 20.6889C109.659 21.3411 109.046 21.6969 108.077 21.6969C107.01 21.6969 106.338 21.2028 106.22 20.1948H103.176C103.275 22.4282 105.132 23.7919 108.097 23.7919Z" fill="#340E0E"/>
<path d="M117.081 23.7722C118.484 23.7722 119.374 23.2188 120.105 22.2306H120.164V23.4757H123.248V13.3562H120.026V19.0089C120.026 20.2146 119.354 21.0447 118.247 21.0447C117.219 21.0447 116.725 20.432 116.725 19.3251V13.3562H113.523V19.9971C113.523 22.2503 114.749 23.7722 117.081 23.7722Z" fill="#340E0E"/>
<path d="M124.648 23.4757H127.87V17.8032C127.87 16.5976 128.463 15.7477 129.471 15.7477C130.439 15.7477 130.894 16.3802 130.894 17.4672V23.4757H134.116V17.8032C134.116 16.5976 134.689 15.7477 135.717 15.7477C136.685 15.7477 137.14 16.3802 137.14 17.4672V23.4757H140.361V16.894C140.361 14.6211 139.215 13.0597 136.922 13.0597C135.618 13.0597 134.531 13.6131 133.74 14.8385H133.701C133.187 13.7515 132.179 13.0597 130.855 13.0597C129.392 13.0597 128.423 13.7515 127.791 14.799H127.732V13.3562H124.648V23.4757Z" fill="#340E0E"/>
<path fill-rule="evenodd" clip-rule="evenodd" d="M17.5331 33.358C26.6296 33.358 34.0037 25.9839 34.0037 16.8874C34.0037 7.79101 26.6296 0.41687 17.5331 0.41687C8.43662 0.41687 1.0625 7.79101 1.0625 16.8874C1.0625 25.9839 8.43662 33.358 17.5331 33.358ZM22.6714 8.08956C22.9215 7.20115 22.0593 6.6758 21.2719 7.23676L10.2804 15.0671C9.42644 15.6754 9.56076 16.8874 10.4821 16.8874H13.3765V16.865H19.0175L14.4212 18.4868L12.3949 25.6854C12.1448 26.5738 13.0068 27.0991 13.7943 26.5381L24.7858 18.7078C25.6398 18.0995 25.5054 16.8874 24.5841 16.8874H20.1948L22.6714 8.08956Z" fill="#F15757"/>
</g>
<defs>
<clipPath id="clip0_325_425">
<rect width="140" height="33.7647" fill="white" transform="translate(0.5 0.303223)"/>
</clipPath>
</defs>
</svg>
